<?xml version="1.0" standalone="no"?>
<!DOCTYPE svg PUBLIC "-//W3C//DTD SVG 20010904//EN"
 "http://www.w3.org/TR/2001/REC-SVG-20010904/DTD/svg10.dtd">
<svg version="1.0" xmlns="http://www.w3.org/2000/svg"
 width="400.000000pt" height="400.000000pt" viewBox="0 0 400.000000 400.000000"
 preserveAspectRatio="xMidYMid meet">
<metadata>
Created by potrace 1.11, written by Peter Selinger 2001-2013
</metadata>
<g transform="translate(0.000000,400.000000) scale(0.100000,-0.100000)"
fill="#000000" stroke="none">
<path d="M235 3934 c-64 -22 -149 -96 -176 -151 l-24 -48 -3 -1725 -2 -1725
31 -63 c21 -43 46 -75 80 -102 96 -76 -56 -71 1874 -68 l1730 3 51 27 c60 32
118 93 148 157 l21 46 0 1715 0 1715 -24 52 c-26 58 -86 120 -153 155 l-43 23
-1735 2 c-1481 1 -1741 -1 -1775 -13z m1931 -395 c297 -52 558 -251 685 -522
82 -175 106 -418 60 -602 -45 -176 -134 -329 -267 -460 -69 -68 -73 -74 -112
-185 -168 -477 -483 -1364 -486 -1367 -3 -3 -205 484 -486 1173 l-127 312 -73
68 c-176 167 -275 382 -287 624 -5 108 1 162 32 315 11 52 60 159 106 230 138
212 345 354 600 410 77 16 273 19 355 4z"/>
<path d="M1870 3061 c-215 -68 -353 -285 -320 -501 40 -261 302 -439 559 -379
226 52 388 286 352 508 -21 128 -113 266 -219 328 -106 62 -259 80 -372 44z"/>
</g>
</svg>
